<?xml version="1.0" encoding="UTF-8"?>
<svg version="1.1" xmlns="http://www.w3.org/2000/svg" width="1024" height="1024">
<path d="M0 0 C337.92 0 675.84 0 1024 0 C1024 337.92 1024 675.84 1024 1024 C686.08 1024 348.16 1024 0 1024 C0 686.08 0 348.16 0 0 Z " fill="#FDFEFE" transform="translate(0,0)"/>
<path d="M0 0 C3.53363442 3.53363442 6.45234321 6.70342488 9.4375 10.625 C9.85870117 11.17784668 10.27990234 11.73069336 10.71386719 12.30029297 C17.49607794 21.24180771 24.10388681 30.31571716 30.73535156 39.36914062 C37.48722402 48.58500309 44.30406114 57.74170048 51.25 66.8125 C56.08533326 73.1273009 60.84030272 79.47736771 65.42382812 85.97705078 C68.45809042 90.27136774 71.58531837 94.48850778 74.75 98.6875 C79.15907406 104.53781059 83.53294348 110.41225169 87.875 116.3125 C88.45918701 117.10599854 89.04337402 117.89949707 89.64526367 118.71704102 C92.61487076 122.7526609 95.58045663 126.79120072 98.54296875 130.83203125 C99.71586119 132.42989648 100.88903635 134.02755422 102.0625 135.625 C102.63299072 136.40206299 103.20348145 137.17912598 103.79125977 137.97973633 C108.43279239 144.27994492 113.17883752 150.49655489 118.00219727 156.65869141 C118.51322998 157.31788574 119.0242627 157.97708008 119.55078125 158.65625 C120.22620972 159.51959961 120.22620972 159.51959961 120.9152832 160.40039062 C122 162 122 162 123 165 C82.41 165 41.82 165 0 165 C0 110.55 0 56.1 0 0 Z " fill="#0F5876" transform="translate(517,306)"/>
<path d="M0 0 C0.33 0 0.66 0 1 0 C1 50.16 1 100.32 1 152 C-31.67 152 -64.34 152 -98 152 C-96.66255977 148.65639943 -95.63676615 146.19538134 -93.77734375 143.26953125 C-93.33060303 142.56328613 -92.8838623 141.85704102 -92.42358398 141.12939453 C-91.93317627 140.36481934 -91.44276855 139.60024414 -90.9375 138.8125 C-90.41293213 137.98862793 -89.88836426 137.16475586 -89.34790039 136.31591797 C-82.74263684 125.97666434 -76.00666807 115.72180588 -69.27392578 105.46533203 C-67.01188229 102.01906152 -64.75359857 98.57033851 -62.49609375 95.12109375 C-58.10296278 88.40942786 -53.70542641 81.70065758 -49.30657959 74.99273682 C-47.96141518 72.94115216 -46.61666289 70.88929782 -45.27197266 68.83740234 C-33.56265551 50.97181526 -21.80267388 33.14227535 -9.91674805 15.39355469 C-9.47350693 14.7308255 -9.03026581 14.06809631 -8.57359314 13.38528442 C-7.75241304 12.15760197 -6.930276 10.93055878 -6.10694885 9.70431519 C-4.43340106 7.20142358 -2.8191186 4.69202534 -1.29394531 2.09521484 C-0.86694336 1.40379395 -0.43994141 0.71237305 0 0 Z " fill="#3CB5BE" transform="translate(500,329)"/>
<path d="M0 0 C8.841776 8.17447215 14.27989201 18.55240937 14.78271484 30.58789062 C14.96585066 44.2660343 10.20254855 55.00262519 1.3125 65.3125 C-11.36629617 75.49363682 -25.52058514 77.64443401 -41.31152344 76.58300781 C-46.70447064 75.96901423 -51.07829809 74.08221769 -55.6875 71.3125 C-56.58855469 70.78140625 -57.48960937 70.2503125 -58.41796875 69.703125 C-67.95314055 63.56230535 -74.91236228 54.0442089 -77.37109375 42.8359375 C-78.9610635 30.15543803 -78.17741026 18.17268916 -70.5390625 7.54296875 C-52.93327307 -13.66569321 -21.96937295 -17.28257338 0 0 Z " fill="#135673" transform="translate(480.6875,677.6875)"/>
<path d="M0 0 C0.76248047 0.27714844 1.52496094 0.55429687 2.31054688 0.83984375 C47.8885633 17.7146098 83.6121054 53.26454132 104 97 C110.0235439 110.57695904 114.11328307 124.44909426 117 139 C117.36931641 140.78083984 117.36931641 140.78083984 117.74609375 142.59765625 C123.54658859 176.80057409 117.45167893 214.58682675 103 246 C102.67386719 246.9178125 102.34773438 247.835625 102.01171875 248.78125 C98.63293774 252.50775022 93.82850568 252.45074723 89 253 C89.24121582 252.46334717 89.48243164 251.92669434 89.73095703 251.3737793 C100.99025022 226.15949433 109.18864437 200.81498139 109.18530273 172.97583008 C109.18746899 170.96626705 109.20592114 168.95674292 109.22460938 166.94726562 C109.24296714 154.47010614 107.94048721 142.34996375 104.8125 130.25 C104.59674316 129.41202881 104.38098633 128.57405762 104.15869141 127.71069336 C96.49309903 98.92830902 82.34379335 72.76449097 61.43505859 51.47021484 C60.05717626 50.05857698 58.70945794 48.61768606 57.36328125 47.17578125 C36.46184957 25.27458004 8.10299232 10.610804 -21 3 C-21.68175293 2.80535156 -22.36350586 2.61070312 -23.06591797 2.41015625 C-36.19107241 -1.24019345 -49.35253059 -1.3718391 -62.875 -1.375 C-63.75582245 -1.37690338 -64.6366449 -1.37880676 -65.54415894 -1.38076782 C-80.04531565 -1.37722557 -94.02612889 -0.4623631 -108.0625 3.5 C-109.24489258 3.81904297 -109.24489258 3.81904297 -110.45117188 4.14453125 C-113.79989858 5.0580751 -117.08628842 6.02959603 -120.37109375 7.15625 C-123 8 -123 8 -126 8 C-126 8.66 -126 9.32 -126 10 C-126.77085937 10.26554687 -127.54171875 10.53109375 -128.3359375 10.8046875 C-129.33882813 11.15789062 -130.34171875 11.51109375 -131.375 11.875 C-132.37273437 12.22304688 -133.37046875 12.57109375 -134.3984375 12.9296875 C-137.10442118 13.84782502 -137.10442118 13.84782502 -139 16 C-140.38257696 16.53556665 -141.78161089 17.02901537 -143.1875 17.5 C-158.644479 23.494892 -172.06169457 35.86652415 -184 47 C-184.75152344 47.69738281 -185.50304687 48.39476562 -186.27734375 49.11328125 C-204.47038606 66.60290189 -217.18625642 89.57983232 -226 113 C-226.30679687 113.76957031 -226.61359375 114.53914063 -226.9296875 115.33203125 C-233.21477548 131.23913536 -235.51277427 147.96112524 -235.28125 164.94921875 C-235.24982091 167.26318578 -235.24022376 169.57646425 -235.234375 171.890625 C-235.17706393 183.10555876 -235.0784576 194.39864613 -232.5625 205.375 C-232.31628906 206.47585938 -232.07007813 207.57671875 -231.81640625 208.7109375 C-230.04687867 215.83984764 -227.71190995 222.56801556 -225.03515625 229.390625 C-223.87732307 232.40213198 -223 234.74379613 -223 238 C-225.54700993 239.60367292 -226.61401546 240.06442578 -229.64453125 239.55859375 C-230.42183594 239.37425781 -231.19914062 239.18992187 -232 239 C-232.97304704 236.08085888 -233.94595215 233.16167197 -234.91796875 230.2421875 C-235.56320008 228.30882287 -236.21078246 226.37623653 -236.86328125 224.4453125 C-237.11464844 223.70023438 -237.36601562 222.95515625 -237.625 222.1875 C-237.84414063 221.54167969 -238.06328125 220.89585937 -238.2890625 220.23046875 C-247.86180116 190.19731614 -248.94720002 145.71930658 -236.84765625 116.23046875 C-235.92565375 113.89297677 -235.92565375 113.89297677 -235.12109375 110.98828125 C-222.08182025 67.25138231 -187.33654075 30.92800139 -148.06054688 9.1394043 C-102.6370914 -15.24100761 -48.01717409 -17.60503787 0 0 Z " fill="#7ECEDD" transform="translate(575,280)"/>
<path d="M0 0 C12.4678125 -0.1546875 12.4678125 -0.1546875 25.1875 -0.3125 C27.78391357 -0.35802002 30.38032715 -0.40354004 33.05541992 -0.45043945 C57.64850578 -0.70115878 57.64850578 -0.70115878 68.0625 7.375 C72.14774821 12.90985242 74.74059532 16.67537138 74.3828125 23.6640625 C73.43529288 29.44586589 71.26839285 34.26148232 66.75 38.0625 C65.8425 38.701875 64.935 39.34125 64 40 C65.485 40.99 65.485 40.99 67 42 C73.02179902 46.60133433 77.19470414 50.50019534 78.34375 58.34765625 C78.75548163 65.00741531 76.95713206 69.68021916 73 75 C65.72981982 82.27018018 55.09812968 84.04723139 45.18310547 84.22705078 C43.07777296 84.22655877 40.97242012 84.21582693 38.8671875 84.1953125 C37.87468994 84.19329834 36.88219238 84.19128418 35.85961914 84.18920898 C32.19803153 84.17884732 28.53651048 84.15092585 24.875 84.125 C16.66625 84.08375 8.4575 84.0425 0 84 C0 56.28 0 28.56 0 0 Z " fill="#145573" transform="translate(316,669)"/>
<path d="M0 0 C0 0.99 0 1.98 0 3 C-1.91426373 4.85725588 -3.80565804 6.51974922 -5.875 8.1875 C-6.76421143 8.92105713 -6.76421143 8.92105713 -7.67138672 9.66943359 C-9.43949671 11.12325524 -11.21750255 12.56387189 -13 14 C-13.89203125 14.72058594 -14.7840625 15.44117188 -15.703125 16.18359375 C-17.31310825 17.4741771 -18.92638128 18.76066754 -20.54296875 20.04296875 C-26.02124406 24.4064281 -31.41647446 28.87386211 -36.82421875 33.32421875 C-38.66854066 34.83928933 -40.51868172 36.34730809 -42.375 37.84765625 C-44.07041485 39.23779551 -45.73974598 40.66066129 -47.375 42.12109375 C-48.48875 43.08208984 -48.48875 43.08208984 -49.625 44.0625 C-50.25664063 44.63097656 -50.88828125 45.19945312 -51.5390625 45.78515625 C-58.57839232 49.260127 -67.80845833 46.35376148 -75.125 44.9375 C-76.87695679 44.60576782 -76.87695679 44.60576782 -78.66430664 44.26733398 C-91.58400689 41.7729491 -104.39692052 38.80530664 -117.22021484 35.86425781 C-150.50908116 28.25267102 -183.96230425 21.20155171 -218.22265625 20.87890625 C-220.05574795 20.85541934 -221.88883714 20.83173638 -223.72192383 20.80786133 C-227.36472839 20.76151419 -231.00424445 20.75849494 -234.6472168 20.7800293 C-236.33253042 20.7660693 -238.01783462 20.75090489 -239.703125 20.734375 C-240.4812001 20.74984879 -241.25927521 20.76532257 -242.06092834 20.78126526 C-244.25488281 20.74121094 -244.25488281 20.74121094 -248 20 C-250.76632164 16.86040192 -252 15.21074168 -252 11 C-250.73998421 10.94695457 -250.73998421 10.94695457 -249.45451355 10.89283752 C-241.49638969 10.55733313 -233.53838017 10.2192532 -225.58048534 9.87835789 C-221.4903194 9.70323483 -217.40011754 9.52907027 -213.30981445 9.35717773 C-209.35451053 9.19092176 -205.39932621 9.02204159 -201.44420815 8.85142326 C-199.94336141 8.78712507 -198.44247542 8.72373571 -196.9415493 8.66131783 C-189.50696806 8.35156833 -182.10472445 7.95989808 -174.69767761 7.23414612 C-169.37239725 6.77193606 -164.0314272 6.5991417 -158.69140625 6.38671875 C-157.37901474 6.3323465 -156.06662323 6.27797424 -154.71446228 6.22195435 C-151.09116509 6.07198557 -147.46773461 5.92549686 -143.8442688 5.7796669 C-140.77147875 5.65554848 -137.69877501 5.52936324 -134.62607002 5.40315914 C-124.09583315 4.97071066 -113.56530478 4.54559019 -103.03470612 4.12205505 C-99.87296782 3.9948908 -96.71123351 3.8676275 -93.54949951 3.74035645 C-62.36665733 2.48543431 -31.18344944 1.23973492 0 0 Z " fill="#115976" transform="translate(643,488)"/>
<path d="M0 0 C0.69886322 0.04484528 1.39772644 0.08969055 2.11776733 0.13589478 C32.627552 2.13224235 62.23476798 8.61092118 92 15.3125 C102.5770769 17.69269233 113.15503476 20.00094255 123.8125 22 C124.76898437 22.18256348 125.72546875 22.36512695 126.7109375 22.55322266 C129.96784641 23.14663321 133.22898437 23.67693565 136.5 24.1875 C137.292854 24.31278076 138.08570801 24.43806152 138.90258789 24.56713867 C152.91129215 26.73295383 166.63777104 27.66694333 180.80908203 27.57861328 C183.89529827 27.56239332 186.9802267 27.57865688 190.06640625 27.59765625 C205.80745302 27.61538645 220.30499266 25.76814136 235.4375 21.3125 C236.32284424 21.05782959 237.20818848 20.80315918 238.12036133 20.54077148 C243.68759912 18.88473019 248.82923764 16.93405728 253.85546875 13.97265625 C254.39816406 13.71355469 254.94085937 13.45445312 255.5 13.1875 C256.16 13.5175 256.82 13.8475 257.5 14.1875 C251.29877081 20.08249565 244.90542477 24.90425695 237.5 29.1875 C236.04787109 30.05181641 236.04787109 30.05181641 234.56640625 30.93359375 C213.03501348 42.7666358 188.39389466 45.6350736 164.25 45.625 C163.25856995 45.62540283 162.26713989 45.62580566 161.2456665 45.6262207 C132.97275554 45.5604183 106.57753136 40.30552523 79.18717957 33.7734375 C35.29803807 23.05311756 35.29803807 23.05311756 -9.33789062 16.5949707 C-13.13486526 16.24441963 -16.89020614 15.70800682 -20.6640625 15.16015625 C-29.79499026 13.95092895 -38.89037968 13.849992 -48.08984375 13.87182617 C-50.86498286 13.87498858 -53.6390538 13.85141259 -56.4140625 13.82617188 C-66.77748205 13.79136292 -76.56433152 14.54048879 -86.73681641 16.54223633 C-90.09140728 17.11743963 -93.10864487 17.31309347 -96.5 17.1875 C-96.5 17.8475 -96.5 18.5075 -96.5 19.1875 C-98.33072917 19.64518229 -100.16145833 20.10286458 -101.9921875 20.56054688 C-102.73726563 20.74681641 -103.48234375 20.93308594 -104.25 21.125 C-106.35904948 21.65226237 -108.46809896 22.17952474 -110.57714844 22.70678711 C-111.21168945 22.86542236 -111.84623047 23.02405762 -112.5 23.1875 C-113.24024414 23.37256104 -113.98048828 23.55762207 -114.74316406 23.74829102 C-115.61279785 23.96569946 -115.61279785 23.96569946 -116.5 24.1875 C-114.39876986 21.9148987 -112.40050215 20.43131488 -109.6640625 18.99609375 C-108.92929687 18.60873047 -108.19453125 18.22136719 -107.4375 17.82226562 C-106.674375 17.42716797 -105.91125 17.03207031 -105.125 16.625 C-104.36960937 16.22603516 -103.61421875 15.82707031 -102.8359375 15.41601562 C-97.96157821 12.86379428 -93.25164229 10.67918906 -87.9375 9.1875 C-84.6999596 8.37881686 -84.6999596 8.37881686 -82.72265625 7.21875 C-79.71783463 5.82459726 -76.75109298 5.31062615 -73.5 4.6875 C-72.83863037 4.56004395 -72.17726074 4.43258789 -71.49584961 4.30126953 C-65.51402694 3.16084751 -59.51799779 2.1188568 -53.5 1.1875 C-52.200625 0.98125 -50.90125 0.775 -49.5625 0.5625 C-44.84278921 -0.01501735 -40.10089295 0.16098853 -35.35546875 0.25 C-6.06894935 -0.39101821 -6.06894935 -0.39101821 0 0 Z " fill="#60C0D5" transform="translate(437.5,517.8125)"/>
<path d="M0 0 C0.87454834 0.00523682 1.74909668 0.01047363 2.65014648 0.01586914 C3.59438477 0.0190918 4.53862305 0.02231445 5.51147461 0.02563477 C6.50469727 0.03401367 7.49791992 0.04239258 8.52124023 0.05102539 C9.51833008 0.05553711 10.51541992 0.06004883 11.54272461 0.06469727 C14.01478872 0.07652532 16.48673541 0.0930069 18.95874023 0.11352539 C24.41721086 10.86050767 29.60699277 21.69835224 34.58374023 32.67602539 C35.26977099 34.18448359 35.95597213 35.6928643 36.64233398 37.20117188 C38.04816938 40.29220739 39.4519318 43.3841731 40.85424805 46.47680664 C42.59397265 50.31247077 44.34050157 54.14498865 46.08944702 57.97645569 C47.4036277 60.85708032 48.71446141 63.73921851 50.02435303 66.62179565 C50.64496646 67.98620064 51.26674364 69.3500769 51.88970947 70.71340942 C52.74963977 72.59647844 53.6048101 74.48163574 54.45874023 76.36743164 C54.94342773 77.43292236 55.42811523 78.49841309 55.92749023 79.59619141 C56.95874023 82.11352539 56.95874023 82.11352539 56.95874023 84.11352539 C49.36874023 84.11352539 41.77874023 84.11352539 33.95874023 84.11352539 C31.64874023 78.50352539 29.33874023 72.89352539 26.95874023 67.11352539 C14.41874023 66.78352539 1.87874023 66.45352539 -11.04125977 66.11352539 C-12.03125977 69.41352539 -13.02125977 72.71352539 -14.04125977 76.11352539 C-15.03125977 78.75352539 -16.02125977 81.39352539 -17.04125977 84.11352539 C-24.30125977 84.11352539 -31.56125977 84.11352539 -39.04125977 84.11352539 C-38.07993833 79.30691819 -36.51212204 75.38783264 -34.47875977 70.98852539 C-33.90242798 69.72359253 -33.90242798 69.72359253 -33.31445312 68.43310547 C-31.89594578 65.323852 -30.46882365 62.21863114 -29.04125977 59.11352539 C-26.74226292 54.10559276 -24.44584646 49.09647817 -22.15093994 44.08666992 C-21.45297647 42.5632488 -20.7546937 41.03997393 -20.05609131 39.5168457 C-15.20221063 28.93047949 -10.44222771 18.31312165 -5.87158203 7.60058594 C-5.50605225 6.74634033 -5.14052246 5.89209473 -4.76391602 5.01196289 C-4.45204346 4.2763916 -4.1401709 3.54082031 -3.81884766 2.78295898 C-2.58968703 0.14402637 -2.58968703 0.14402637 0 0 Z " fill="#125471" transform="translate(580.041259765625,668.886474609375)"/>
<path d="M0 0 C1.53624023 0.00193359 1.53624023 0.00193359 3.10351562 0.00390625 C11.40542611 0.09939148 18.82491739 1.25700735 26.5 4.5 C27.77037109 5.02980469 27.77037109 5.02980469 29.06640625 5.5703125 C29.99259766 5.96863281 29.99259766 5.96863281 30.9375 6.375 C30.24813929 10.28621498 29.15499819 13.93008596 27.875 17.6875 C27.33166016 19.29044922 27.33166016 19.29044922 26.77734375 20.92578125 C26.50019531 21.73402344 26.22304688 22.54226563 25.9375 23.375 C25.41542969 23.19324219 24.89335938 23.01148438 24.35546875 22.82421875 C21.89052135 21.98242411 19.41671398 21.17381786 16.9375 20.375 C15.62072266 19.94574219 15.62072266 19.94574219 14.27734375 19.5078125 C6.54834865 17.17243268 -0.99849981 15.76341372 -8.6875 18.8125 C-10.92437174 20.16950789 -10.92437174 20.16950789 -12.0625 21.375 C-12.13429964 22.89428038 -12.14642007 24.41667482 -12.125 25.9375 C-12.10416667 27.41666667 -12.08333333 28.89583333 -12.0625 30.375 C-4.7803386 32.98244057 2.55386511 34.74057328 10.12109375 36.3046875 C19.64518604 38.43047609 27.33228397 42.16014241 32.9375 50.375 C35.81691106 55.12800045 35.41393583 59.98051689 34.9375 65.375 C32.9118621 72.40515506 28.5717755 78.23874227 22.24609375 81.95703125 C8.88126148 88.26668676 -9.37414471 88.64560741 -23.5 84.375 C-27.85121222 82.67696596 -31.98865449 80.65527194 -36.0625 78.375 C-35.40746718 74.31680817 -34.11690879 70.83528718 -32.5 67.0625 C-31.81744141 65.45955078 -31.81744141 65.45955078 -31.12109375 63.82421875 C-30.59708984 62.61185547 -30.59708984 62.61185547 -30.0625 61.375 C-26.33115863 62.82105617 -22.84306954 64.48833514 -19.3203125 66.375 C-13.74970991 68.84225651 -8.62701803 69.65005999 -2.5625 69.625 C-0.69078125 69.63273438 -0.69078125 69.63273438 1.21875 69.640625 C5.13454225 69.36092555 8.2227333 68.58134176 11.9375 67.375 C11.9375 64.405 11.9375 61.435 11.9375 58.375 C5.68141402 55.39171554 -0.18610963 53.47250938 -6.9375 52 C-16.76293283 49.6653512 -25.66049846 47.37595783 -31.6875 38.6875 C-35.10207992 32.97350644 -35.86334249 27.94935815 -35.0625 21.375 C-32.46245044 13.18605888 -27.44026576 7.24778949 -19.87792969 3.20800781 C-13.13822061 0.30262003 -7.28520533 -0.17488175 0 0 Z " fill="#135572" transform="translate(676.0625,667.625)"/>
<path d="M0 0 C1.73828125 2.0546875 1.73828125 2.0546875 3.3125 4.875 C10.7343686 17.3943939 20.67518934 28.84252379 32 38 C32.93328125 38.75925781 33.8665625 39.51851562 34.828125 40.30078125 C58.62694458 59.31584315 85.93983987 71.93405783 116 77 C117.03125 77.20496094 118.0625 77.40992188 119.125 77.62109375 C161.52313891 85.15507677 208.64204624 73.00673667 243.79541016 48.76171875 C252.838599 42.30778618 261.14978319 34.85021681 269 27 C271.36030696 26.54152311 273.7398174 26.17856869 276.125 25.875 C277.40632813 25.70742188 278.68765625 25.53984375 280.0078125 25.3671875 C280.99523437 25.24601563 281.98265625 25.12484375 283 25 C276.20295725 34.58557311 268.20681834 41.73725087 259 49 C258.06027344 49.74507812 257.12054687 50.49015625 256.15234375 51.2578125 C216.85529979 81.61649788 167.93098861 92.51613252 118.97460938 87.28076172 C102.36382686 85.08741459 85.05644766 80.40754946 70 73 C69.24154785 72.62891113 68.4830957 72.25782227 67.70166016 71.87548828 C51.52430551 63.88904476 37.81479242 54.59251238 24 43 C23.33613281 42.47148438 22.67226563 41.94296875 21.98828125 41.3984375 C20.62254777 40.30967095 19.3034858 39.16256841 18 38 C18 37.34 18 36.68 18 36 C17.34 36 16.68 36 16 36 C16 35.34 16 34.68 16 34 C15.40445312 33.73832031 14.80890625 33.47664062 14.1953125 33.20703125 C4.52138901 27.88809467 -4.69950975 12.36419944 -10 3 C-10 2.34 -10 1.68 -10 1 C-6.58988269 0.22054462 -3.48406183 -0.46239092 0 0 Z " fill="#81D0E0" transform="translate(367,541)"/>
<path d="M0 0 C3.3521921 2.01693739 5.97091274 4.30493677 8.5 7.3125 C8.96664062 7.81910156 9.43328125 8.32570313 9.9140625 8.84765625 C15.07967357 15.4128882 14.33910203 23.43293237 13.5 31.3125 C11.875957 38.51477765 7.55237895 43.24376852 1.5 47.3125 C-4.79000526 50.51154048 -12.62273881 50.44544922 -19.5 49.3125 C-26.75211671 46.46476225 -30.56870851 41.63054304 -33.66015625 34.64453125 C-36.3637242 27.13741467 -36.86481951 19.44703678 -33.5 12.0625 C-26.76557957 0.04768173 -13.17254509 -6.19736883 0 0 Z " fill="#FBFCFC" transform="translate(459.5,686.6875)"/>
<path d="M0 0 C6.93 0 13.86 0 21 0 C21 27.72 21 55.44 21 84 C14.07 84 7.14 84 0 84 C0 56.28 0 28.56 0 0 Z " fill="#125471" transform="translate(510,669)"/>
<path d="M0 0 C4.54230412 -0.10800723 9.08203539 -0.18733842 13.625 -0.25 C15.55279297 -0.30027344 15.55279297 -0.30027344 17.51953125 -0.3515625 C29.40921574 -0.47477167 29.40921574 -0.47477167 34 4 C35.56935594 7.13871188 35.35201103 9.53855822 35 13 C32.8272578 15.63016161 31.05326212 17.47336894 28 19 C25.89471067 19.08543895 23.78668843 19.10714725 21.6796875 19.09765625 C20.42285156 19.09443359 19.16601562 19.09121094 17.87109375 19.08789062 C16.55238281 19.07951172 15.23367188 19.07113281 13.875 19.0625 C12.53515789 19.05748489 11.195314 19.05292201 9.85546875 19.04882812 C6.57029343 19.03701095 3.28514119 19.01907501 0 19 C0 12.73 0 6.46 0 0 Z " fill="#FAFCFB" transform="translate(337,718)"/>
<path d="M0 0 C4.06321081 -0.10795246 8.12355279 -0.1873055 12.1875 -0.25 C13.33798828 -0.28351562 14.48847656 -0.31703125 15.67382812 -0.3515625 C16.78564453 -0.36445312 17.89746094 -0.37734375 19.04296875 -0.390625 C20.06414795 -0.41157227 21.08532715 -0.43251953 22.13745117 -0.45410156 C25.74876717 0.11878098 27.38934073 1.49614175 30 4 C31.44430855 6.88861709 31.37688506 8.79647701 31 12 C28.44975635 15.10164769 26.82300753 16.72566416 23 18 C21.22686149 18.08209792 19.45079225 18.10746294 17.67578125 18.09765625 C16.64775391 18.09443359 15.61972656 18.09121094 14.56054688 18.08789062 C13.48869141 18.07951172 12.41683594 18.07113281 11.3125 18.0625 C10.22904297 18.05798828 9.14558594 18.05347656 8.02929688 18.04882812 C5.35284106 18.03703757 2.67641361 18.01910208 0 18 C0 12.06 0 6.12 0 0 Z " fill="#FAFCFB" transform="translate(337,685)"/>
<path d="M0 0 C2.86554854 2.46710777 4.04779845 5.00132903 5.48046875 8.47265625 C5.92197266 9.53677734 6.36347656 10.60089844 6.81835938 11.69726562 C7.27017578 12.80779297 7.72199219 13.91832031 8.1875 15.0625 C8.65091797 16.17689453 9.11433594 17.29128906 9.59179688 18.43945312 C13 26.71651786 13 26.71651786 13 29 C5.08 29 -2.84 29 -11 29 C-10.26291447 24.57748682 -9.61844084 21.62674482 -7.96875 17.63671875 C-7.57042969 16.66798828 -7.17210937 15.69925781 -6.76171875 14.70117188 C-6.34535156 13.70666016 -5.92898438 12.71214844 -5.5 11.6875 C-5.08363281 10.67365234 -4.66726563 9.65980469 -4.23828125 8.61523438 C-1.14690179 1.14690179 -1.14690179 1.14690179 0 0 Z " fill="#EDF2F2" transform="translate(588,691)"/>
<path d="M0 0 C0 3 0 3 -1.984375 5.29321289 C-2.89703125 6.1774292 -3.8096875 7.06164551 -4.75 7.97265625 C-5.48730347 8.69647743 -5.48730347 8.69647743 -6.23950195 9.43492126 C-7.81938837 10.98475278 -9.4086799 12.52441662 -11 14.0625 C-18.19037914 21.03034641 -24.96534892 27.96748007 -31 36 C-31 32.0103335 -29.61028236 30.96435255 -27.0625 27.9375 C-26.24136719 26.96167969 -25.42023438 25.98585938 -24.57421875 24.98046875 C-16.88999941 16.08356532 -9.1758456 7.3854367 0 0 Z " fill="#98DBE3" transform="translate(396,310)"/>
<path d="M0 0 C0.66 0.33 1.32 0.66 2 1 C0.56458334 2.29398147 -0.87341352 3.58510111 -2.3125 4.875 C-3.11300781 5.59429688 -3.91351562 6.31359375 -4.73828125 7.0546875 C-7 9 -7 9 -10 11 C-10.99 10.67 -11.98 10.34 -13 10 C-12.67 9.34 -12.34 8.68 -12 8 C-12.66 7.67 -13.32 7.34 -14 7 C-11.71296692 5.80274117 -9.42115138 4.61702982 -7.125 3.4375 C-6.14853516 2.92413086 -6.14853516 2.92413086 -5.15234375 2.40039062 C-3.46470143 1.53917109 -1.73420407 0.76313297 0 0 Z " fill="#33AFD2" transform="translate(693,531)"/>
<path d="M0 0 C1.1875 1.5625 1.1875 1.5625 2 4 C0.38184146 9.23521881 -1.74906691 12.40305662 -6 16 C-6.66 16 -7.32 16 -8 16 C-7.56924811 12.26681699 -5.63405003 10.33901044 -3.2109375 7.59375 C-1.44606907 5.27095542 -0.73189598 2.79451193 0 0 Z " fill="#1F627B" transform="translate(472,718)"/>
<path d="M0 0 C0.66 0.99 1.32 1.98 2 3 C0.84871018 6.87252032 -1.16578716 10.40799986 -3 14 C-3.391875 14.78375 -3.78375 15.5675 -4.1875 16.375 C-4.455625 16.91125 -4.72375 17.4475 -5 18 C-5.66 18 -6.32 18 -7 18 C-5.06375702 11.79522136 -2.74390859 5.89174281 0 0 Z " fill="#1F6679" transform="translate(549,732)"/>
<path d="M0 0 C1.33234257 0.33727164 2.66549831 0.67137539 4 1 C2.16927083 1.45768229 0.33854167 1.91536458 -1.4921875 2.37304688 C-2.23726563 2.55931641 -2.98234375 2.74558594 -3.75 2.9375 C-5.85904948 3.46476237 -7.96809896 3.99202474 -10.07714844 4.51928711 C-11.02895996 4.75723999 -11.02895996 4.75723999 -12 5 C-13.11036621 5.27759155 -13.11036621 5.27759155 -14.24316406 5.56079102 C-14.82291992 5.70572998 -15.40267578 5.85066895 -16 6 C-11.61265796 0.83842113 -6.67499736 -1.92833257 0 0 Z " fill="#A8E1EC" transform="translate(337,536)"/>
<path d="M0 0 C0.99 0.33 1.98 0.66 3 1 C2.649375 2.0725 2.29875 3.145 1.9375 4.25 C0.93284239 8.25435111 0.93284239 8.25435111 2 12 C-0.475 11.01 -0.475 11.01 -3 10 C-2.39009109 6.44219804 -1.4216319 3.3171411 0 0 Z " fill="#206375" transform="translate(643,736)"/>
<path d="M0 0 C0.99 0.99 1.98 1.98 3 3 C1.62308038 5.75383923 -0.36720042 6.51483101 -3 8 C-1.125 1.125 -1.125 1.125 0 0 Z " fill="#D8E2E4" transform="translate(588,691)"/>
<path d="M0 0 C0.66 0.33 1.32 0.66 2 1 C-1.465 3.97 -1.465 3.97 -5 7 C-5.66 6.34 -6.32 5.68 -7 5 C-4.88437775 2.67281553 -2.94982021 1.14186589 0 0 Z " fill="#47B9D9" transform="translate(693,531)"/>
<path d="M0 0 C0.33 0.66 0.66 1.32 1 2 C0.67 2.66 0.34 3.32 0 4 C2.31 3.34 4.62 2.68 7 2 C6.67 2.66 6.34 3.32 6 4 C3.93359375 4.6328125 3.93359375 4.6328125 1.4375 5.125 C0.61121094 5.29257812 -0.21507812 5.46015625 -1.06640625 5.6328125 C-1.70449219 5.75398437 -2.34257813 5.87515625 -3 6 C-2.01 4.02 -1.02 2.04 0 0 Z " fill="#58C4D9" transform="translate(667,527)"/>
</svg>
