<?xml version="1.0" standalone="no"?>
<!DOCTYPE svg PUBLIC "-//W3C//DTD SVG 20010904//EN"
 "http://www.w3.org/TR/2001/REC-SVG-20010904/DTD/svg10.dtd">
<svg version="1.0" xmlns="http://www.w3.org/2000/svg"
 width="1024.000000pt" height="1024.000000pt" viewBox="0 0 1024.000000 1024.000000"
 preserveAspectRatio="xMidYMid meet">

<g transform="translate(0.000000,1024.000000) scale(0.100000,-0.100000)"
fill="#000000" stroke="none">
<path d="M5170 6355 l0 -825 610 0 c336 0 610 4 610 9 0 4 -15 28 -34 52 -35
46 -650 876 -983 1327 -107 144 -196 262 -199 262 -2 0 -4 -371 -4 -825z"/>
<path d="M6410 5353 c-14 -1 -149 -7 -300 -13 -151 -6 -527 -22 -835 -35 -308
-13 -740 -32 -960 -41 -220 -10 -402 -19 -404 -20 -1 -1 7 -20 19 -42 l22 -39
211 0 c289 -1 505 -28 902 -113 468 -101 558 -119 678 -140 l128 -22 35 25
c20 14 142 112 272 218 130 107 243 199 251 206 20 14 14 19 -19 16z"/>
<path d="M4327 3541 c-303 -100 -397 -473 -178 -704 87 -92 199 -137 341 -137
236 0 416 145 452 363 31 188 -71 376 -249 460 -63 29 -77 31 -188 34 -97 3
-131 -1 -178 -16z m250 -166 c59 -25 96 -59 128 -116 25 -46 29 -65 29 -129 0
-64 -4 -83 -29 -129 -107 -196 -395 -161 -455 54 -16 58 -8 150 18 201 25 49
76 98 122 118 46 20 141 20 187 1z"/>
<path d="M6634 3549 c-62 -15 -145 -69 -178 -116 -23 -33 -31 -57 -34 -103 -6
-89 4 -126 50 -176 46 -50 100 -73 263 -111 117 -28 165 -58 165 -103 0 -30
-42 -68 -85 -76 -92 -17 -256 17 -319 67 l-26 21 -21 -49 c-52 -120 -50 -110
-26 -126 107 -70 342 -99 474 -58 121 36 182 96 203 197 16 76 -2 137 -56 190
-44 44 -111 70 -309 120 -106 27 -139 71 -94 127 43 55 164 60 298 12 40 -15
74 -25 75 -23 2 2 14 35 29 75 30 83 31 82 -59 114 -67 25 -278 35 -350 18z"/>
<path d="M3160 3132 l0 -419 218 -2 c358 -2 462 21 523 117 68 107 19 265 -96
306 -18 7 -17 10 17 39 63 55 84 118 67 199 -9 40 -21 63 -53 94 -68 69 -108
76 -413 82 l-263 4 0 -420z m480 239 c53 -39 52 -108 -3 -141 -27 -17 -50 -20
-154 -20 l-123 0 0 89 0 90 53 4 c97 8 200 -2 227 -22z m30 -326 c57 -29 69
-104 24 -146 -24 -23 -32 -24 -180 -27 l-154 -3 0 95 0 96 140 0 c106 0 148
-4 170 -15z"/>
<path d="M5100 3135 l0 -415 105 0 105 0 0 415 0 415 -105 0 -105 0 0 -415z"/>
<path d="M5766 3518 c-38 -90 -133 -302 -206 -463 -45 -99 -97 -215 -116 -257
l-33 -78 94 -1 c52 -1 100 -2 107 -3 7 -1 28 38 47 87 l35 87 190 -2 190 -3
35 -82 35 -82 112 -3 112 -3 -13 30 c-11 27 -229 504 -330 723 l-38 82 -103 0
-104 0 -14 -32z m183 -327 c28 -68 51 -130 51 -137 0 -11 -24 -14 -115 -14
-70 0 -115 4 -115 10 0 5 25 73 56 151 37 91 60 136 65 128 4 -8 30 -70 58
-138z"/>
</g>
</svg>
